<?xml version="1.0" encoding="utf-8"?>
<!-- Generator: Adobe Illustrator 18.0.0, SVG Export Plug-In . SVG Version: 6.00 Build 0)  -->
<!DOCTYPE svg PUBLIC "-//W3C//DTD SVG 1.1//EN" "http://www.w3.org/Graphics/SVG/1.1/DTD/svg11.dtd">
<svg version="1.1" id="圖層_1" xmlns="http://www.w3.org/2000/svg" xmlns:xlink="http://www.w3.org/1999/xlink" x="0px" y="0px"
	 viewBox="0 0 300 300" enable-background="new 0 0 300 300" xml:space="preserve">
<g>
	<defs>
		<ellipse id="SVGID_1_" cx="150" cy="150" rx="140.7" ry="144"/>
	</defs>
	<clipPath id="SVGID_2_">
		<use xlink:href="#SVGID_1_"  overflow="visible"/>
	</clipPath>
	<ellipse clip-path="url(#SVGID_2_)" fill="#535E7D" cx="150" cy="150" rx="140.7" ry="144"/>
	<path clip-path="url(#SVGID_2_)" fill="#E7ECED" d="M98.1,123.2c0,0-1.3-33.8,0-39.9c0,0,6.9-32.1,41.6-32.5h20.1
		c0,0,36,0,43.3,36.2v36.2c0,0,3.3,1,3.6,8.8c0.4,9.9,2.9,22.9-4.5,30.8c-0.8,0.8-5.5,3.1-5.7,3.7c0,0-8.9,28.1-18.2,34.8v22.3
		c0,0,3,8.1,8.3,10.5l54.2,28.4c0,0-83.5,77.7-182.3,0l49.9-28.1c0,0,6.3-5.4,8.6-11.8l0.3-21.3c0,0-14.9-18.3-17.8-36.2
		c-5.7-3.5-6.4-11.1-6.4-17.3c0-6.6-0.6-15.6,2.1-21.6C95.2,125.9,98,122.4,98.1,123.2z"/>
</g>
</svg>
