<?xml version="1.0" encoding="utf-8"?>
<!-- Generator: Adobe Illustrator 18.0.0, SVG Export Plug-In . SVG Version: 6.00 Build 0)  -->
<!DOCTYPE svg PUBLIC "-//W3C//DTD SVG 1.1//EN" "http://www.w3.org/Graphics/SVG/1.1/DTD/svg11.dtd">
<svg version="1.1" id="圖層_1" xmlns="http://www.w3.org/2000/svg" xmlns:xlink="http://www.w3.org/1999/xlink" x="0px" y="0px"
	 viewBox="0 0 300 300" enable-background="new 0 0 300 300" xml:space="preserve">
<g>
	<defs>
		<circle id="SVGID_1_" cx="150" cy="150" r="144.7"/>
	</defs>
	<clipPath id="SVGID_2_">
		<use xlink:href="#SVGID_1_"  overflow="visible"/>
	</clipPath>
	<circle clip-path="url(#SVGID_2_)" fill="#525C7A" cx="150" cy="150" r="144.7"/>
	<path clip-path="url(#SVGID_2_)" fill="#E5EAEA" d="M125.2,216.2c-2.8-1.6-22.7-0.9-28.6-1.1c-6.6-0.1-12.9-0.9-19.4-2.2
		c-5.5-1.1-11.5-2-15.9-5.8c-4.8-4.1,3-12.9,5.3-16.2c5-7,8.5-14.9,12-22.7c6.2-13.5,12.9-27,14.1-42c0.5-6.2,0.7-12,2-18.2
		c3.4-16.6,9.7-33.4,23.8-44c9.9-7.4,20.6-7.5,32.3-8.5c0,0,55.1-5.1,61.5,67.1c3.3,18.1,7.4,36.8,14.6,53.8
		c4.6,10.7,27.1,36,1.9,39.2c0,0-44.4,0-44.5,0c-3.4,0-3,4.2-1.9,6c1.2,2,3,3.3,5,4.3c4.3,2.2,8.4,4.6,12.5,7
		c11.6,6.7,23.3,13.8,33.7,22.1c2.9,2.4,8.2,5.9,8.9,9.9c0,0,3.7,19.3,3.7,19.3L147.9,305l-94.4-37.2c0,0,4.6-6,4.6-6
		c6.7-8.7,17.1-12.3,26.8-16.5c9.4-4,18.7-8,28-12.2c2.8-1.3,6.1-2.4,8.6-4.3c3.1-2.3,7.5-7.5,5-11.4
		C126.2,217,125.7,216.5,125.2,216.2z"/>
</g>
</svg>
